<svg width="30" height="30" viewBox="0 0 30 30" fill="none" xmlns="http://www.w3.org/2000/svg">
<path d="M9.15 0.0107096C8.79194 0.0436128 8.4629 0.137484 8.13387 0.300064C7.70419 0.512 7.36355 0.799419 7.05774 1.20781C6.72 1.65877 6.46839 2.25974 6.35419 2.88394C6.05806 4.50587 6.5729 6.33587 7.70129 7.67426C7.8329 7.83006 8.15903 8.15619 8.30806 8.28006C8.52871 8.46297 8.79387 8.64974 9.00484 8.76974C9.88645 9.27103 10.8261 9.39974 11.6565 9.13458C12.8574 8.75039 13.6926 7.60652 13.8774 6.09297C14.0661 4.54361 13.5416 2.85006 12.4858 1.59684C12.3542 1.44103 12.0281 1.1149 11.879 0.991032C11.5713 0.735548 11.309 0.561355 10.9839 0.397806C10.5939 0.200387 10.1932 0.0745806 9.79355 0.024258C9.64936 0.00490314 9.28548 -0.00187106 9.15 0.0107096Z" fill="white"/>
<path d="M20.4388 0.0358517C20.0013 0.0764968 19.7275 0.140368 19.3549 0.287465C18.9262 0.456819 18.5168 0.703594 18.1162 1.03553C17.9623 1.1623 17.5791 1.54553 17.4484 1.70327C17.1281 2.0894 16.893 2.45424 16.6646 2.91779C16.3278 3.60198 16.1362 4.26585 16.0578 5.02263C16.0462 5.13779 16.0413 5.27424 16.0413 5.51134C16.0404 5.84617 16.0472 5.95069 16.0849 6.22263C16.2455 7.38101 16.8146 8.32553 17.6565 8.83263C18.4675 9.32037 19.4623 9.37263 20.4436 8.97875C20.8684 8.80746 21.2739 8.56166 21.6678 8.23553C21.8217 8.10875 22.2049 7.72553 22.3355 7.56779C22.6559 7.18166 22.891 6.81682 23.1194 6.35327C23.4562 5.66908 23.6478 5.00617 23.7262 4.24843C23.7494 4.01908 23.7494 3.48198 23.7262 3.2565C23.5917 1.98101 23.0217 0.976497 22.1275 0.438432C21.6765 0.166497 21.153 0.0252065 20.6178 0.0310129C20.5384 0.0319807 20.4572 0.0339162 20.4388 0.0358517Z" fill="white"/>
<path d="M2.48715 7.99086C2.13973 8.02376 1.87263 8.09634 1.59199 8.23473C1.07425 8.48924 0.675537 8.8986 0.392956 9.46473C0.187795 9.87505 0.0755368 10.2805 0.0174723 10.8099C0.00198841 10.957 0.00198841 11.4767 0.0174723 11.6325C0.0910207 12.3554 0.287472 13.0057 0.623279 13.6309C1.36747 15.0196 2.67392 15.9041 3.91457 15.8576C4.28328 15.8441 4.59392 15.7676 4.91134 15.6109C5.32457 15.4076 5.66328 15.1047 5.92844 14.7002C6.23618 14.2309 6.41328 13.7034 6.48586 13.0357C6.50425 12.8615 6.50134 12.3496 6.48102 12.155C6.32715 10.7431 5.61392 9.44344 4.56296 8.66344C3.96199 8.21731 3.28747 7.97828 2.65167 7.98602C2.58005 7.98602 2.50554 7.98892 2.48715 7.99086Z" fill="white"/>
<path d="M27.1791 8.2124C26.9749 8.23175 26.91 8.24046 26.7968 8.26078C25.6278 8.47369 24.5139 9.25659 23.7745 10.384C23.3555 11.0247 23.1068 11.6963 23.0168 12.4356C22.9926 12.6263 22.9926 13.0724 23.0158 13.2543C23.0633 13.6298 23.1504 13.9298 23.3033 14.2405C23.5345 14.7127 23.8984 15.0882 24.3581 15.3321C24.902 15.6205 25.5871 15.7018 26.2791 15.5595C27.4142 15.3282 28.4991 14.5501 29.2191 13.4518C29.6391 12.8111 29.8868 12.1395 29.9768 11.4001C30.001 11.2095 30.001 10.7634 29.9778 10.5814C29.9304 10.2059 29.8423 9.90304 29.6904 9.5953C29.5655 9.34078 29.4184 9.13466 29.221 8.93627C28.8349 8.54917 28.3423 8.31014 27.7645 8.23078C27.6591 8.21627 27.2652 8.20369 27.1791 8.2124Z" fill="white"/>
<path d="M15.1694 11.1504C15.1055 11.1553 14.9797 11.1582 14.8887 11.1562C14.3245 11.1456 14.0652 11.1553 13.7129 11.2027C12.1084 11.4175 10.3965 12.3127 8.89743 13.7208C6.76356 15.7249 5.18808 18.6233 4.65969 21.5159C4.27646 23.6149 4.45453 25.5804 5.16485 27.1008C5.87227 28.6143 7.08969 29.6082 8.60324 29.9072C9.09291 30.004 9.66098 30.0253 10.1903 29.9653C11.2142 29.8501 12.2487 29.4795 13.2948 28.8514C13.7932 28.5524 14.2974 28.1856 14.761 27.7849C14.851 27.7075 14.941 27.6291 14.9613 27.6127L14.9971 27.5808L15.1026 27.6737C16.4245 28.8388 17.8897 29.6101 19.2919 29.8791C20.0013 30.0156 20.6903 30.0253 21.3252 29.9082C22.8639 29.6237 24.1094 28.6172 24.8207 27.0824C25.7874 24.9978 25.7487 22.1324 24.7152 19.2969C24.3068 18.1743 23.7455 17.072 23.0739 16.0714C21.4219 13.6114 19.1807 11.8762 16.9403 11.3217C16.6423 11.2482 16.3219 11.194 16.0065 11.163C15.8129 11.1437 15.33 11.1369 15.1694 11.1504ZM14.9932 13.4314C15.0339 13.4314 15.2081 13.4314 15.3803 13.4304C15.72 13.4295 15.7684 13.4333 16.1032 13.4866C16.3558 13.5272 16.6829 13.6114 16.9452 13.7043C17.0226 13.7314 17.0961 13.7566 17.1097 13.7614C17.1368 13.7701 17.3323 13.8495 17.4 13.8795C17.5771 13.9588 17.8413 14.0904 17.9874 14.1737C18.0503 14.2095 18.1161 14.2472 18.1345 14.2569C18.1529 14.2675 18.1916 14.2908 18.2197 14.3091C18.2478 14.3275 18.2729 14.342 18.2758 14.342C18.2836 14.342 18.6861 14.613 18.7694 14.6749C19.1681 14.9701 19.4661 15.2266 19.8203 15.5808C20.5355 16.2949 21.1084 17.0633 21.6465 18.0291C21.7278 18.1753 21.9774 18.6717 22.0258 18.784C22.0432 18.8237 22.0703 18.8837 22.0848 18.9175C22.1003 18.9504 22.1129 18.9804 22.1129 18.9824C22.1129 18.9843 22.1245 19.0114 22.1381 19.0424C22.1739 19.1208 22.1884 19.1566 22.2387 19.2824C22.2426 19.293 22.2532 19.3172 22.261 19.3356C22.2687 19.354 22.2832 19.3937 22.2948 19.4227C22.3307 19.5204 22.3848 19.6695 22.3936 19.6937C22.3984 19.7072 22.4129 19.7478 22.4255 19.7856C22.4603 19.8833 22.5619 20.2056 22.5987 20.3372C22.6045 20.3585 22.6142 20.3933 22.621 20.4146C22.6442 20.4891 22.7265 20.8317 22.7661 21.0146C22.7797 21.0785 22.7942 21.1501 22.8 21.1743C22.8097 21.2227 22.8726 21.6049 22.8871 21.7114C22.9065 21.8508 22.9248 22.0249 22.9355 22.1566C22.9413 22.2311 22.95 22.3356 22.9548 22.3888C22.9674 22.5146 22.9674 23.1998 22.9548 23.3324C22.95 23.3885 22.9413 23.4882 22.9355 23.5549C22.9026 23.9353 22.8407 24.2769 22.7236 24.7211C22.7081 24.7772 22.6326 25.0124 22.6094 25.0743C22.5687 25.1827 22.5368 25.2611 22.5184 25.3037C22.5078 25.3269 22.5 25.3472 22.5 25.3491C22.5 25.3617 22.3674 25.6366 22.3181 25.7275C22.2474 25.8562 22.2281 25.8891 22.1613 25.9946C21.5739 26.9169 20.6981 27.4956 19.6597 27.6495C19.2697 27.7066 18.7674 27.6978 18.3581 27.6253C18.3126 27.6175 18.2603 27.6078 18.2419 27.6049C18.0223 27.5672 17.551 27.4288 17.3323 27.3388C17.2936 27.3233 17.2587 27.3098 17.2539 27.3098C17.25 27.3098 17.2152 27.2953 17.1755 27.2778C17.1368 27.2595 17.0894 27.2401 17.071 27.2324C17.01 27.2101 16.6336 27.0224 16.5145 26.9566C16.4168 26.9014 16.1632 26.7524 16.1536 26.7437C16.1516 26.7417 16.1826 26.7291 16.2213 26.7146C17.0042 26.4204 17.7407 25.8514 18.359 25.0646C19.68 23.3817 20.1174 21.0882 19.3926 19.6424C19.0452 18.9495 18.4878 18.5324 17.7581 18.4191C17.5936 18.394 17.25 18.3959 17.0661 18.424C16.4023 18.5256 15.7181 18.8633 15.1036 19.3927L14.9894 19.4904L14.8955 19.4101C14.2616 18.8662 13.591 18.5343 12.929 18.4356C11.73 18.2566 10.7458 18.932 10.3945 20.1766C10.0781 21.2943 10.2832 22.7024 10.9519 24.002C11.3681 24.8111 11.9303 25.5108 12.5855 26.0333C12.9455 26.3208 13.3597 26.5617 13.7352 26.7011C13.7971 26.7243 13.8484 26.7466 13.8484 26.7495C13.8484 26.7582 13.6452 26.882 13.4903 26.9682C13.4719 26.9788 13.4323 27.0001 13.4032 27.0166C13.3742 27.033 13.3016 27.0708 13.2436 27.0998C13.1478 27.1472 13.0984 27.1714 12.9339 27.2469C12.4471 27.4714 11.7619 27.6562 11.2819 27.693C11.2345 27.6959 11.1968 27.7027 11.1968 27.7075C11.1968 27.7124 11.0632 27.7162 10.8968 27.7162C10.7323 27.7162 10.5968 27.7124 10.5968 27.7075C10.5968 27.7037 10.561 27.6969 10.5174 27.693C10.11 27.6601 9.68227 27.5401 9.29033 27.3504C8.6613 27.0446 8.12711 26.5356 7.73711 25.8678C7.65775 25.7314 7.51646 25.444 7.4613 25.3066C7.43904 25.2504 7.41775 25.1962 7.41291 25.1856C7.38872 25.1275 7.32195 24.9291 7.27646 24.7791C7.23872 24.6533 7.18066 24.4162 7.14775 24.2517C7.12743 24.1472 7.08775 23.8956 7.0742 23.7824C7.0684 23.7291 7.05969 23.6527 7.05485 23.613C7.05001 23.5733 7.04324 23.4853 7.03937 23.4175C7.03646 23.3488 7.02969 23.2937 7.02485 23.2937C7.02001 23.2937 7.01614 23.1127 7.01614 22.8824C7.01614 22.6559 7.02001 22.4711 7.02485 22.4711C7.02872 22.4711 7.0355 22.413 7.03937 22.3424C7.04904 22.1478 7.08291 21.8246 7.11775 21.6001C7.1255 21.5498 7.13711 21.4772 7.14291 21.4404C7.1555 21.3582 7.19808 21.1259 7.20969 21.0727C7.21453 21.0514 7.23195 20.9749 7.24743 20.9033C7.30743 20.6333 7.38098 20.3566 7.4584 20.1098C7.51937 19.9162 7.63743 19.5708 7.67614 19.4759C7.68679 19.4488 7.69937 19.4188 7.70324 19.4082C7.70711 19.3975 7.71969 19.3666 7.73033 19.3395C7.74195 19.3124 7.75743 19.2698 7.76711 19.2437C7.77582 19.2175 7.79324 19.173 7.80582 19.1449C7.8184 19.1169 7.83969 19.0695 7.85324 19.0404C7.86679 19.0104 7.87743 18.9843 7.87743 18.9824C7.87743 18.9804 7.88808 18.9553 7.90066 18.9272C7.91324 18.8991 7.93453 18.8517 7.94711 18.8227C8.07195 18.542 8.27904 18.1375 8.47453 17.7969C8.65453 17.4824 8.94098 17.0469 9.16743 16.742C9.49646 16.2998 9.77517 15.9766 10.1516 15.5991C10.4574 15.2933 10.5726 15.1888 10.9452 14.883C11.0613 14.7882 11.3361 14.5888 11.4968 14.4824C11.8007 14.282 12.0252 14.1514 12.3145 14.0091C12.4626 13.9356 12.6078 13.8678 12.6155 13.8678C12.6174 13.8678 12.6378 13.8591 12.661 13.8495C12.6832 13.8398 12.7432 13.8146 12.7936 13.7953C12.8439 13.7749 12.8942 13.7556 12.9048 13.7517C12.9774 13.7217 13.2126 13.6453 13.321 13.6153C13.3423 13.6095 13.379 13.5988 13.4032 13.592C13.4497 13.5785 13.5678 13.5495 13.679 13.5253C13.8165 13.4943 14.0778 13.4546 14.1968 13.4459C14.2423 13.442 14.2858 13.4353 14.2936 13.4314C14.3013 13.4266 14.4455 13.4246 14.6129 13.4275C14.7803 13.4295 14.9516 13.4314 14.9932 13.4314Z" fill="white"/>
</svg>
